<?xml version="1.0"?>
<svg xmlns="http://www.w3.org/2000/svg" height="512px" viewBox="0 0 64 64" width="512px"><g><g id="clipboard-checklist-file-pen"><circle cx="26" cy="7" r="2" data-original="#000000" class="active-path" data-old_color="#000000" fill="#04458F"/><path d="m12 32h8a1 1 0 0 0 1-1v-2.989h-2v1.989h-6v-6h4.918v-2h-5.918a1 1 0 0 0 -1 1v8a1 1 0 0 0 1 1z" data-original="#000000" class="active-path" data-old_color="#000000" fill="#04458F"/><path d="m16.108 26.694-1.4-1.4-1.414 1.414 2 2a1 1 0 0 0 1.288.107l7-5-1.162-1.628z" data-original="#000000" class="active-path" data-old_color="#000000" fill="#04458F"/><path d="m19 43h-6v-6h4.918v-2h-5.918a1 1 0 0 0 -1 1v8a1 1 0 0 0 1 1h8a1 1 0 0 0 1-1v-2.989h-2z" data-original="#000000" class="active-path" data-old_color="#000000" fill="#04458F"/><path d="m16.108 39.694-1.4-1.4-1.414 1.414 2 2a1 1 0 0 0 1.288.107l7-5-1.162-1.628z" data-original="#000000" class="active-path" data-old_color="#000000" fill="#04458F"/><path d="m61.71 32.29-6-6a1.033 1.033 0 0 0 -.71-.29h-5v-17a1 1 0 0 0 -1-1h-16.07a7 7 0 0 0 -13.86 0h-16.07a1 1 0 0 0 -1 1v52a1 1 0 0 0 1 1h58a1 1 0 0 0 1-1v-28a1.033 1.033 0 0 0 -.29-.71zm-5.71-2.88 2.59 2.59h-2.59zm-8-19.41v16h-1v-14a1 1 0 0 0 -1-1h-9a3 3 0 0 0 -.18-1zm-31 1a1 1 0 0 1 1-1h2a1 1 0 0 0 1-1 5 5 0 0 1 10 0 1 1 0 0 0 1 1h2a1 1 0 0 1 1 1v4a1 1 0 0 1 -1 1h-16a1 1 0 0 1 -1-1zm17 49h-30v-50h11.18a3 3 0 0 0 -.18 1h-9a1 1 0 0 0 -1 1v46a1 1 0 0 0 1 1h28zm0-3h-27v-44h8v2a3.009 3.009 0 0 0 3 3h16a3.009 3.009 0 0 0 3-3v-2h8v13h-10a1 1 0 0 0 -1 1v21h-16a1.006 1.006 0 0 0 -.39.08l-7 3a1 1 0 0 0 0 1.84l7 3a1.006 1.006 0 0 0 .39.08h16zm-16.05-5-.55 1.65-3.86-1.65 3.86-1.65zm1.44 2 .56-1.68a1 1 0 0 0 0-.64l-.56-1.68h20.61v4zm40.61 6h-24v-4h12a4 4 0 0 0 0-8h-12v-20h18v5a1 1 0 0 0 1 1h5zm-18-6v-4h2v4zm4 0v-4h2a2 2 0 0 1 0 4z" data-original="#000000" class="active-path" data-old_color="#000000" fill="#04458F"/><path d="m38 30h14v2h-14z" data-original="#000000" class="active-path" data-old_color="#000000" fill="#04458F"/><path d="m38 34h14v2h-14z" data-original="#000000" class="active-path" data-old_color="#000000" fill="#04458F"/><path d="m38 38h20v2h-20z" data-original="#000000" class="active-path" data-old_color="#000000" fill="#04458F"/><path d="m38 42h20v2h-20z" data-original="#000000" class="active-path" data-old_color="#000000" fill="#04458F"/></g></g> </svg>
